{"title":"Hasee Toh Phasee (2014) - Zehnaseeb Official Video Song HD 1080p","uid":9451059,"size":54552926,"categoryP":"video","categoryS":"music_videos","magnet":"?xt=urn:btih:916ba8539c2265f16cd1fdf878c9b2c215fabf51&amp;dn=Hasee+Toh+Phasee+%282014%29+-+Zehnaseeb+Official+Video+Song+HD+1080p&amp;tr=udp%3A%2F%2Ftracker.openbittorrent.com%3A80&amp;tr=udp%3A%2F%2Fopen.demonii.com%3A1337&amp;tr=udp%3A%2F%2Ftracker.coppersurfer.tk%3A6969&amp;tr=udp%3A%2F%2Fexodus.desync.com%3A6969","seeders":2,"leechers":0,"uploader":"ashish.p","files":1,"time":1389141944,"description":"General\n\nComplete name : Hasee Toh Phasee (2014) - Zehnaseeb Official Video Song HD 1080p -AshishRocks- { DAKU RG }\nFormat : MPEG-4\nFormat profile : Base Media\nCodec ID : isom\nFile size :\t52.0 MiB\nDuration :\t 2mn 23s\nOverall bit rate mode : Variable\nOverall bit rate : 3 034 Kbps\nEncoded date : UTC 2013-12-15 09:05:05\nTagged date : UTC 2013-12-15 09:05:05\n\nVideo\n\nID : 1\nFormat : AVC\nFormat/Info : Advanced Video Codec\nFormat profile : &lt;a class=&quot;__cf_email__&quot; href=&quot;/cdn-cgi/l/email-protection&quot; data-cfemail=&quot;c48cada3ac8488f0eaf4&quot;&gt;[email&amp;#160;protected]&lt;/a&gt;&lt;script cf-hash='f9e31' type=&quot;text/javascript&quot;&gt;\n/* &lt;![CDATA[ */!function(){try{var t=&quot;currentScript&quot;in document?document.currentScript:function(){for(var t=document.getElementsByTagName(&quot;script&quot;),e=t.length;e--;)if(t[e].getAttribute(&quot;cf-hash&quot;))return t[e]}();if(t&amp;&amp;t.previousSibling){var e,r,n,i,c=t.previousSibling,a=c.getAttribute(&quot;data-cfemail&quot;);if(a){for(e=&quot;&quot;,r=parseInt(a.substr(0,2),16),n=2;a.length-n;n+=2)i=parseInt(a.substr(n,2),16)^r,e+=String.fromCharCode(i);e=document.createTextNode(e),c.parentNode.replaceChild(e,c)}}}catch(u){}}();/* ]]&gt; */&lt;/script&gt;\nFormat settings, CABAC :\tYes\nFormat settings, ReFrames : 2 frames\nCodec ID : avc1\nCodec ID/Info : Advanced Video Coding\nDuration :\t2mn 23s\nBit rate : 2 908 Kbps\nWidth : 1 920 pixels\nHeight : 1 080 pixels\nDisplay aspect ratio : 16:9\nFrame rate mode : Constant\nFrame rate : 25.000 fps\nColor space : YUV\nChroma subsampling : 4:2:0\nBit depth : 8 bits\nScan type : Progressive\nBits/(Pixel*Frame) :\t0.056\nStream size : 49.8 MiB (96%)\nEncoded date : UTC 2013-12-15 09:05:05\nTagged date :\tUTC 2013-12-15 09:05:05\n\nAudio\n\nID :\t2\nFormat :\tAAC\nFormat/Info :\tAdvanced Audio Codec\nFormat profile : LC\nCodec ID : 40\nDuration :\t 2mn 23s\nBit rate mode :\tVariable\nBit rate : 126 Kbps\nChannel(s) : 2 channels\nChannel positions :\tFront: L R\nSampling rate : 44.1 KHz\nCompression mode : Lossy\nStream size : 2.15 MiB (4%)\nEncoded date : UTC 2013-12-15 09:04:47\nTagged date :\tUTC 2013-12-15 09:04:47\n","torrent":{"xt":"urn:btih:916ba8539c2265f16cd1fdf878c9b2c215fabf51","amp;dn":"Hasee+Toh+Phasee+%282014%29+-+Zehnaseeb+Official+Video+Song+HD+1080p","amp;tr":["udp%3A%2F%2Ftracker.openbittorrent.com%3A80","udp%3A%2F%2Fopen.demonii.com%3A1337","udp%3A%2F%2Ftracker.coppersurfer.tk%3A6969","udp%3A%2F%2Fexodus.desync.com%3A6969"],"infoHash":"916ba8539c2265f16cd1fdf878c9b2c215fabf51","infoHashBuffer":{"type":"Buffer","data":[145,107,168,83,156,34,101,241,108,209,253,248,120,201,178,194,21,250,191,81]},"announce":[],"urlList":[]}}